<?xml version="1.0" encoding="UTF-8" standalone="no"?><!DOCTYPE svg PUBLIC "-//W3C//DTD SVG 1.1//EN" "http://www.w3.org/Graphics/SVG/1.1/DTD/svg11.dtd"><svg width="100%" height="100%" viewBox="0 0 194 194" version="1.1" xmlns="http://www.w3.org/2000/svg" xmlns:xlink="http://www.w3.org/1999/xlink" xml:space="preserve" xmlns:serif="http://www.serif.com/" style="fill-rule:evenodd;clip-rule:evenodd;stroke-linejoin:round;stroke-miterlimit:2;"><rect id="Artboard1" x="0" y="0" width="194" height="194" style="fill:none;"/><g id="Layer1"><g><path d="M192.739,97.148c0,-53.058 -42.911,-96.036 -95.888,-96.036c-52.973,-0 -95.59,42.978 -95.59,96.036c-0,52.761 42.617,95.74 95.59,95.74c52.977,0 95.888,-42.979 95.888,-95.74Z" style="fill:#007549;fill-rule:nonzero;"/><path d="M87.381,81.734l-0,5.631c-0,0.892 0.592,1.78 1.479,1.78l15.981,-0c0.888,-0 1.479,-0.888 1.479,-1.78l0,-5.631c0,-0.888 -0.591,-1.48 -1.479,-1.48c-2.662,-0 -5.324,-0.296 -7.99,-0.296c-2.663,-0 -5.325,0.296 -7.991,0.296c-0.887,-0 -1.479,0.592 -1.479,1.48Z" style="fill:#fff;fill-rule:nonzero;"/><path d="M101.588,143.686c-0,2.668 -2.071,4.739 -4.737,4.739c-2.663,0 -4.733,-2.071 -4.733,-4.739c-0,-2.668 2.07,-5.039 4.733,-5.039c2.666,-0 4.737,2.371 4.737,5.039Z" style="fill:#fff;fill-rule:nonzero;"/><path d="M124.077,153.465c-0,-0.888 -0.888,-1.48 -1.775,-1.48c-7.991,2.668 -16.573,3.851 -25.451,3.851c-8.878,0 -17.461,-1.183 -25.451,-3.851c-0.888,-0 -1.775,0.592 -1.775,1.48c-0,0.592 0.296,1.188 0.887,1.484c8.287,2.371 17.165,3.851 26.339,3.851c9.174,0 18.052,-1.48 26.338,-3.851c0.592,-0.296 0.888,-0.892 0.888,-1.484Z" style="fill:#fff;fill-rule:nonzero;"/><path d="M78.503,38.755c-2.367,0.296 -4.441,0.592 -6.808,1.184c-1.183,-0 -2.07,1.188 -2.07,2.372l-0,18.673c-0,1.484 1.183,2.668 2.958,2.372c2.074,0 4.441,-0.296 6.511,-0.592c1.479,0 2.367,-1.184 2.367,-2.668l-0,-18.969c-0,-1.484 -1.183,-2.668 -2.958,-2.372Z" style="fill:#fff;fill-rule:nonzero;"/><path d="M108.395,40.239c0,-1.188 -0.891,-2.372 -2.37,-2.372c-2.958,-0.296 -5.916,-0.596 -9.174,-0.596c-2.958,0 -6.216,0.3 -9.174,0.596c-1.479,0 -2.367,1.184 -2.367,2.372l0,19.561c0,1.484 1.184,2.668 2.663,2.372l17.756,0c1.479,0.296 2.666,-0.888 2.666,-2.372l0,-19.561Z" style="fill:#fff;fill-rule:nonzero;"/><path d="M112.241,41.127l-0,18.969c-0,1.484 0.887,2.668 2.366,2.668c2.37,0.296 4.441,0.592 6.807,0.592c1.48,0.296 2.663,-0.888 2.663,-2.372l-0,-18.673c-0,-1.184 -0.592,-2.372 -2.071,-2.372c-2.071,-0.592 -4.437,-0.888 -6.807,-1.184c-1.775,-0.296 -2.958,0.888 -2.958,2.372Z" style="fill:#fff;fill-rule:nonzero;"/><path d="M82.644,98.036l-10.357,-0c-1.479,-0 -2.662,1.188 -2.662,2.667l-0,18.974c-0,1.48 0.887,2.368 2.366,2.668c3.258,0.296 7.103,0.592 10.653,0.592c1.483,-0 2.666,-1.188 2.666,-2.668l0,-19.566c0,-1.479 -1.183,-2.667 -2.666,-2.667Z" style="fill:#fff;fill-rule:nonzero;"/><path d="M108.395,100.703l0,19.566c0,1.48 1.183,2.668 2.662,2.668c3.846,-0.296 7.399,-0.296 10.653,-0.592c1.479,-0.3 2.367,-1.188 2.367,-2.668l-0,-18.974c-0,-1.479 -0.888,-2.667 -2.367,-2.667l-10.653,-0c-1.479,-0 -2.662,1.188 -2.662,2.667Z" style="fill:#fff;fill-rule:nonzero;"/><path d="M102.179,98.036l-10.653,-0c-1.483,-0 -2.666,1.188 -2.666,2.667l0,19.862c0,1.48 1.183,2.668 2.666,2.668l10.653,-0c1.479,-0 2.662,-1.188 2.662,-2.668l0,-19.862c0,-1.479 -1.183,-2.667 -2.662,-2.667Z" style="fill:#fff;fill-rule:nonzero;"/><path d="M88.86,3.483c-0.296,-1.187 -1.775,-1.779 -2.958,-1.779c-17.461,2.075 -33.442,8.595 -46.761,18.673c-23.083,17.49 -37.88,45.351 -37.88,76.771c-0,38.831 23.084,72.62 56.524,87.441c4.145,1.778 9.177,0.593 11.84,-2.964l9.469,-13.042c-4.437,-0.593 -8.582,-1.482 -12.723,-2.668c-1.779,-0.593 -2.666,-2.075 -2.666,-3.557l-0,-128.642c-0,-1.48 0.887,-2.964 2.666,-3.26c5.029,-1.484 10.061,-2.668 15.386,-3.259l0.591,-5.336c0,-0.892 0.892,-1.484 1.779,-1.484l10.357,0l-5.624,-16.894Z" style="fill:#fff;fill-rule:nonzero;"/><path d="M154.561,20.377c-15.982,-12.154 -36.105,-19.265 -57.71,-19.265l-3.254,-0c-1.183,-0 -1.775,1.184 -1.479,2.371l5.62,16.894l11.84,0c0.888,0 1.775,0.592 1.775,1.484l0.592,5.336c5.328,0.591 10.653,1.775 15.685,3.259c1.479,0.296 2.367,1.78 2.367,3.26l-0,128.642c-0,1.779 -0.888,2.964 -2.367,3.557c-4.145,1.186 -8.582,2.075 -13.023,2.668l9.47,13.042c2.666,3.557 7.695,4.742 11.84,2.964c33.442,-14.821 56.822,-48.61 56.822,-87.441c0,-31.42 -15.094,-59.281 -38.178,-76.771Z" style="fill:#fff;fill-rule:nonzero;"/></g></g></svg>